<svg width="1200" height="800" viewBox="0 0 1200 800" fill="none" xmlns="http://www.w3.org/2000/svg">
  <rect width="1200" height="800" rx="40" fill="#071422"/>
  <rect x="80" y="90" width="1040" height="620" rx="30" fill="url(#paint0_linear)"/>
  <rect x="140" y="150" width="920" height="88" rx="24" fill="white" fill-opacity="0.08"/>
  <path d="M170 550C260 410 330 420 420 500C510 580 610 600 730 450C830 330 920 340 1030 490" stroke="#22D3EE" stroke-width="24" stroke-linecap="round"/>
  <rect x="170" y="300" width="150" height="160" rx="20" fill="white" fill-opacity="0.08"/>
  <rect x="360" y="300" width="150" height="220" rx="20" fill="#A855F7" fill-opacity="0.3"/>
  <rect x="550" y="300" width="150" height="120" rx="20" fill="white" fill-opacity="0.08"/>
  <rect x="740" y="300" width="150" height="260" rx="20" fill="#34D399" fill-opacity="0.28"/>
  <rect x="930" y="300" width="100" height="200" rx="20" fill="white" fill-opacity="0.08"/>
  <defs>
    <linearGradient id="paint0_linear" x1="110" y1="100" x2="1120" y2="710" gradientUnits="userSpaceOnUse">
      <stop stop-color="#0F172A"/>
      <stop offset="1" stop-color="#1E293B"/>
    </linearGradient>
  </defs>
</svg>
